<svg width="29" height="22" viewBox="0 0 29 22" fill="none" xmlns="http://www.w3.org/2000/svg">
<path d="M23.7379 1.81672C21.9239 0.968018 19.9843 0.351214 17.9566 0C17.7075 0.450244 17.4166 1.05583 17.216 1.53757C15.0604 1.2134 12.9247 1.2134 10.8088 1.53757C10.6082 1.05583 10.3107 0.450244 10.0594 0C8.02944 0.351214 6.08764 0.970284 4.27368 1.82122C0.614914 7.3501 -0.376918 12.7416 0.118999 18.0566C2.54569 19.8688 4.89744 20.9697 7.2095 21.6901C7.78037 20.9044 8.2895 20.0692 8.7281 19.189C7.89276 18.8716 7.09269 18.4799 6.33671 18.0251C6.53727 17.8766 6.73345 17.7212 6.92298 17.5614C11.5339 19.718 16.5438 19.718 21.0996 17.5614C21.2914 17.7212 21.4875 17.8766 21.6859 18.0251C20.9277 18.4821 20.1254 18.8738 19.2901 19.1913C19.7287 20.0692 20.2356 20.9066 20.8087 21.6923C23.1229 20.9719 25.4769 19.8711 27.9036 18.0566C28.4855 11.8952 26.9095 6.55317 23.7379 1.81672ZM9.35628 14.788C7.97213 14.788 6.83701 13.4958 6.83701 11.9222C6.83701 10.3486 7.94789 9.05423 9.35628 9.05423C10.7647 9.05423 11.8998 10.3464 11.8755 11.9222C11.8777 13.4958 10.7647 14.788 9.35628 14.788ZM18.6663 14.788C17.2822 14.788 16.147 13.4958 16.147 11.9222C16.147 10.3486 17.2579 9.05423 18.6663 9.05423C20.0747 9.05423 21.2098 10.3464 21.1856 11.9222C21.1856 13.4958 20.0747 14.788 18.6663 14.788Z" fill="white"/>
</svg>
