<svg width="20" height="19" viewBox="0 0 20 19" fill="none" xmlns="http://www.w3.org/2000/svg">
<path d="M13.8748 0.000359056C13.0695 0.00864239 12.2436 0.165893 11.4355 0.488443L11.3988 0.504009L11.3621 0.522909C10.8499 0.783776 10.383 1.11011 9.96793 1.49684C7.73421 -0.435108 4.17803 -0.575325 1.74509 1.61803L1.72063 1.64026L1.69839 1.66361C-0.435873 3.89288 -0.38589 7.32606 0.893444 10.0388L0.904561 10.0599L0.915678 10.0821C2.42241 12.8722 5.23595 15.243 7.79991 17.1921L7.80658 17.1976L7.81213 17.2021C7.97708 17.323 8.26071 17.573 8.58816 17.8191C8.9156 18.0652 9.28548 18.3349 9.8267 18.4384L9.94788 18.4617L10.0702 18.4517C10.6382 18.4027 10.861 18.193 11.2342 17.9581C11.6074 17.7232 12.0205 17.425 12.445 17.0987C13.2817 16.4554 14.1474 15.714 14.7175 15.1853C14.7248 15.1784 14.7369 15.1686 14.7442 15.1619C14.7454 15.1609 14.7464 15.1596 14.7475 15.1586C15.9484 14.1339 17.1379 12.9526 18.1463 11.563C18.1466 11.5626 18.1471 11.5624 18.1474 11.5619C18.1493 11.5594 18.151 11.5567 18.1529 11.5542C19.7522 9.40095 20.528 6.49925 19.6027 3.64041L19.586 3.58926L19.5638 3.54144C18.525 1.29554 16.2906 -0.0244576 13.8748 0.000359056ZM13.9037 1.75923C15.6443 1.71919 17.1699 2.65119 17.9273 4.24519C18.6271 6.47681 18.0222 8.75053 16.7187 10.5013L16.7154 10.5057L16.7121 10.5102C15.8041 11.7632 14.7044 12.86 13.5646 13.83L13.5501 13.8434L13.5357 13.8567C13.0224 14.3345 12.1536 15.0787 11.3599 15.6889C10.963 15.994 10.5826 16.2667 10.287 16.4527C10.1759 16.5227 10.0702 16.5704 9.98348 16.6073C9.89233 16.5575 9.77665 16.4873 9.65663 16.3972C9.41497 16.2155 9.15763 15.9837 8.87725 15.7768C8.87288 15.7734 8.86828 15.7701 8.86392 15.7667C6.37568 13.8742 3.75475 11.5761 2.49443 9.2594C1.47124 7.07351 1.51589 4.45719 2.96138 2.91993C4.92681 1.17239 7.84676 1.55231 9.30305 3.34574L10.0124 4.21851L10.6984 3.32796C11.0931 2.81591 11.5641 2.42446 12.1359 2.12723C12.7353 1.89308 13.3308 1.77239 13.9037 1.75923Z" fill="black"/>
</svg>
