<svg width="17" height="17" viewBox="0 0 17 17" fill="none" xmlns="http://www.w3.org/2000/svg">
<path d="M16.6846 16.6843C16.4743 16.8948 16.2225 17 15.9292 17C15.6359 17 15.3841 16.8948 15.1738 16.6843L11.8867 13.3939C10.5586 14.3799 9.07552 14.8729 7.4375 14.8729C6.43034 14.8729 5.46745 14.6763 4.54883 14.283C3.63021 13.8897 2.83887 13.3607 2.1748 12.696C1.51074 12.0313 0.982259 11.2419 0.589355 10.328C0.196452 9.41398 0 8.45015 0 7.43646C0 6.42278 0.196452 5.45617 0.589355 4.53666C0.982259 3.61714 1.51074 2.82779 2.1748 2.16862C2.83887 1.50945 3.63021 0.983219 4.54883 0.589932C5.46745 0.196644 6.43034 0 7.4375 0C8.44466 0 9.40755 0.196644 10.3262 0.589932C11.2448 0.983219 12.0361 1.50945 12.7002 2.16862C13.3643 2.82779 13.8927 3.61714 14.2856 4.53666C14.6785 5.45617 14.875 6.42001 14.875 7.42815C14.875 9.07885 14.3825 10.5634 13.3975 11.8817L16.6846 15.172C16.8949 15.3825 17 15.6346 17 15.9282C17 16.2217 16.8949 16.4738 16.6846 16.6843ZM7.4375 2.12708C6.47461 2.12708 5.58643 2.3625 4.77295 2.83333C3.95947 3.30417 3.31478 3.9495 2.83887 4.76931C2.36296 5.58912 2.125 6.47817 2.125 7.43646C2.125 8.39475 2.36296 9.28381 2.83887 10.1036C3.31478 10.9234 3.95947 11.5688 4.77295 12.0396C5.58643 12.5104 6.47461 12.7458 7.4375 12.7458C8.40039 12.7458 9.28857 12.5104 10.1021 12.0396C10.9155 11.5688 11.5602 10.9234 12.0361 10.1036C12.512 9.28381 12.75 8.39475 12.75 7.43646C12.75 6.47817 12.512 5.58912 12.0361 4.76931C11.5602 3.9495 10.9155 3.30417 10.1021 2.83333C9.28857 2.3625 8.40039 2.12708 7.4375 2.12708Z" fill="white"/>
</svg>
